{
  "accessors": [
    {
      "bufferView": 2,
      "componentType": 5126,
      "count": 65532,
      "max": [
        0.8793274164199829,
        0.7834152579307556,
        0.7228921055793762
      ],
      "min": [
        -1.161084771156311,
        0.008732259273529053,
        -0.8421534895896912
      ],
      "type": "VEC3"
    },
    {
      "bufferView": 2,
      "byteOffset": 786384,
      "componentType": 5126,
      "count": 65532,
      "max": [
        0.9996182918548584,
        0.9999933242797852,
        0.9999833106994629
      ],
      "min": [
        -0.9999732375144958,
        -0.999994695186615,
        -0.9999948740005493
      ],
      "type": "VEC3"
    },
    {
      "bufferView": 1,
      "componentType": 5126,
      "count": 65532,
      "max": [
        0.9993379712104797,
        0.9999079704284668
      ],
      "min": [
        0.001711999997496605,
        0.0017079710960388184
      ],
      "type": "VEC2"
    },
    {
      "bufferView": 0,
      "componentType": 5125,
      "count": 326169,
      "type": "SCALAR"
    },
    {
      "bufferView": 2,
      "byteOffset": 1572768,
      "componentType": 5126,
      "count": 65532,
      "max": [
        0.6694411039352417,
        0.7886102795600891,
        0.7153973579406738
      ],
      "min": [
        -0.8022191524505615,
        0.006052255630493164,
        -0.9400045871734619
      ],
      "type": "VEC3"
    },
    {
      "bufferView": 2,
      "byteOffset": 2359152,
      "componentType": 5126,
      "count": 65532,
      "max": [
        0.9999473094940186,
        0.9999917149543762,
        1.0
      ],
      "min": [
        -0.9998896718025208,
        -0.9999900460243225,
        -0.9999415874481201
      ],
      "type": "VEC3"
    },
    {
      "bufferView": 1,
      "byteOffset": 524256,
      "componentType": 5126,
      "count": 65532,
      "max": [
        0.9987940192222595,
        0.9998310208320618
      ],
      "min": [
        0.0017890000017359853,
        0.0016769766807556152
      ],
      "type": "VEC2"
    },
    {
      "bufferView": 0,
      "byteOffset": 1304676,
      "componentType": 5125,
      "count": 336432,
      "type": "SCALAR"
    },
    {
      "bufferView": 2,
      "byteOffset": 3145536,
      "componentType": 5126,
      "count": 65532,
      "max": [
        0.7992615699768066,
        0.741652250289917,
        0.9267594814300537
      ],
      "min": [
        -1.1435092687606812,
        0.007183253765106201,
        -1.078863263130188
      ],
      "type": "VEC3"
    },
    {
      "bufferView": 2,
      "byteOffset": 3931920,
      "componentType": 5126,
      "count": 65532,
      "max": [
        0.9998497366905212,
        0.9999967217445374,
        0.9999943971633911
      ],
      "min": [
        -0.9999648332595825,
        -0.9999886751174927,
        -0.999946117401123
      ],
      "type": "VEC3"
    },
    {
      "bufferView": 1,
      "byteOffset": 1048512,
      "componentType": 5126,
      "count": 65532,
      "max": [
        0.9979109764099121,
        0.9992820024490356
      ],
      "min": [
        0.0035149999894201756,
        0.005316019058227539
      ],
      "type": "VEC2"
    },
    {
      "bufferView": 0,
      "byteOffset": 2650404,
      "componentType": 5125,
      "count": 337677,
      "type": "SCALAR"
    },
    {
      "bufferView": 2,
      "byteOffset": 4718304,
      "componentType": 5126,
      "count": 65532,
      "max": [
        0.8757769465446472,
        0.7407602667808533,
        0.9339975118637085
      ],
      "min": [
        -1.169891119003296,
        -0.0012317299842834473,
        -0.8176546692848206
      ],
      "type": "VEC3"
    },
    {
      "bufferView": 2,
      "byteOffset": 5504688,
      "componentType": 5126,
      "count": 65532,
      "max": [
        0.999871551990509,
        0.9999569654464722,
        0.9999877214431763
      ],
      "min": [
        -0.9998897910118103,
        -0.9999955892562866,
        -0.999979555606842
      ],
      "type": "VEC3"
    },
    {
      "bufferView": 1,
      "byteOffset": 1572768,
      "componentType": 5126,
      "count": 65532,
      "max": [
        0.9998369812965393,
        0.9998850226402283
      ],
      "min": [
        0.0020119999535381794,
        0.0015580058097839355
      ],
      "type": "VEC2"
    },
    {
      "bufferView": 0,
      "byteOffset": 4001112,
      "componentType": 5125,
      "count": 319725,
      "type": "SCALAR"
    },
    {
      "bufferView": 2,
      "byteOffset": 6291072,
      "componentType": 5126,
      "count": 65532,
      "max": [
        0.8522368669509888,
        0.762867271900177,
        0.8546453714370728
      ],
      "min": [
        -0.0432678759098053,
        -0.0009077191352844238,
        -0.3600302040576935
      ],
      "type": "VEC3"
    },
    {
      "bufferView": 2,
      "byteOffset": 7077456,
      "componentType": 5126,
      "count": 65532,
      "max": [
        0.9999909400939941,
        0.999988853931427,
        0.9999938011169434
      ],
      "min": [
        -0.9999723434448242,
        -0.9999586343765259,
        -0.9999393224716187
      ],
      "type": "VEC3"
    },
    {
      "bufferView": 1,
      "byteOffset": 2097024,
      "componentType": 5126,
      "count": 65532,
      "max": [
        0.9998810291290283,
        0.9997119903564453
      ],
      "min": [
        0.0014979999978095293,
        0.0015259981155395508
      ],
      "type": "VEC2"
    },
    {
      "bufferView": 0,
      "byteOffset": 5280012,
      "componentType": 5125,
      "count": 300507,
      "type": "SCALAR"
    },
    {
      "bufferView": 2,
      "byteOffset": 7863840,
      "componentType": 5126,
      "count": 65532,
      "max": [
        0.6137542724609375,
        0.7839052677154541,
        0.609758734703064
      ],
      "min": [
        -0.14257436990737915,
        0.1018642783164978,
        -0.22901959717273712
      ],
      "type": "VEC3"
    },
    {
      "bufferView": 2,
      "byteOffset": 8650224,
      "componentType": 5126,
      "count": 65532,
      "max": [
        0.9999706149101257,
        0.9999999403953552,
        0.9999608397483826
      ],
      "min": [
        -0.9999875426292419,
        -0.9999860525131226,
        -0.9999784231185913
      ],
      "type": "VEC3"
    },
    {
      "bufferView": 1,
      "byteOffset": 2621280,
      "componentType": 5126,
      "count": 65532,
      "max": [
        0.9998700022697449,
        0.999966025352478
      ],
      "min": [
        0.0025190000887960196,
        0.0016440153121948242
      ],
      "type": "VEC2"
    },
    {
      "bufferView": 0,
      "byteOffset": 6482040,
      "componentType": 5125,
      "count": 302634,
      "type": "SCALAR"
    },
    {
      "bufferView": 2,
      "byteOffset": 9436608,
      "componentType": 5126,
      "count": 65532,
      "max": [
        0.741708517074585,
        0.7146692276000977,
        0.6205785870552063
      ],
      "min": [
        -0.9518517851829529,
        -0.0015167295932769775,
        -0.9045686721801758
      ],
      "type": "VEC3"
    },
    {
      "bufferView": 2,
      "byteOffset": 10222992,
      "componentType": 5126,
      "count": 65532,
      "max": [
        0.9999887943267822,
        0.9999990463256836,
        0.9999740123748779
      ],
      "min": [
        -0.9999237060546875,
        -0.9999999403953552,
        -0.9999722242355347
      ],
      "type": "VEC3"
    },
    {
      "bufferView": 1,
      "byteOffset": 3145536,
      "componentType": 5126,
      "count": 65532,
      "max": [
        0.9997730255126953,
        0.9997720122337341
      ],
      "min": [
        0.0015160000184550881,
        0.001654982566833496
      ],
      "type": "VEC2"
    },
    {
      "bufferView": 0,
      "byteOffset": 7692576,
      "componentType": 5125,
      "count": 317400,
      "type": "SCALAR"
    },
    {
      "bufferView": 2,
      "byteOffset": 11009376,
      "componentType": 5126,
      "count": 65532,
      "max": [
        0.8686854839324951,
        0.7886102795600891,
        0.9334424138069153
      ],
      "min": [
        -0.2037878930568695,
        0.009607255458831787,
        -0.3411971628665924
      ],
      "type": "VEC3"
    },
    {
      "bufferView": 2,
      "byteOffset": 11795760,
      "componentType": 5126,
      "count": 65532,
      "max": [
        0.9998559355735779,
        0.9999266266822815,
        0.9999691843986511
      ],
      "min": [
        -0.9999905228614807,
        -0.9999309778213501,
        -0.999983012676239
      ],
      "type": "VEC3"
    },
    {
      "bufferView": 1,
      "byteOffset": 3669792,
      "componentType": 5126,
      "count": 65532,
      "max": [
        0.9999549984931946,
        0.9999740123748779
      ],
      "min": [
        0.0015620000194758177,
        0.0015000104904174805
      ],
      "type": "VEC2"
    },
    {
      "bufferView": 0,
      "byteOffset": 8962176,
      "componentType": 5125,
      "count": 288534,
      "type": "SCALAR"
    },
    {
      "bufferView": 2,
      "byteOffset": 12582144,
      "componentType": 5126,
      "count": 65532,
      "max": [
        0.329820454120636,
        0.7795422673225403,
        0.4461902379989624
      ],
      "min": [
        -0.8392798900604248,
        0.010459274053573608,
        -0.9280154705047607
      ],
      "type": "VEC3"
    },
    {
      "bufferView": 2,
      "byteOffset": 13368528,
      "componentType": 5126,
      "count": 65532,
      "max": [
        0.9999566078186035,
        0.9999882578849792,
        0.9998998641967773
      ],
      "min": [
        -0.9999526143074036,
        -0.9999995231628418,
        -0.9998427033424377
      ],
      "type": "VEC3"
    },
    {
      "bufferView": 1,
      "byteOffset": 4194048,
      "componentType": 5126,
      "count": 65532,
      "max": [
        0.9999470114707947,
        0.999891996383667
      ],
      "min": [
        0.0014979999978095293,
        0.0015149712562561035
      ],
      "type": "VEC2"
    },
    {
      "bufferView": 0,
      "byteOffset": 10116312,
      "componentType": 5125,
      "count": 287541,
      "type": "SCALAR"
    },
    {
      "bufferView": 2,
      "byteOffset": 14154912,
      "componentType": 5126,
      "count": 65532,
      "max": [
        0.4062196612358093,
        0.7862982749938965,
        0.47814977169036865
      ],
      "min": [
        -1.1686036586761475,
        -0.0029077231884002686,
        -1.0782532691955566
      ],
      "type": "VEC3"
    },
    {
      "bufferView": 2,
      "byteOffset": 14941296,
      "componentType": 5126,
      "count": 65532,
      "max": [
        0.9998095035552979,
        0.9999991655349731,
        0.9999834895133972
      ],
      "min": [
        -0.9999716281890869,
        -0.9999971389770508,
        -0.9999579191207886
      ],
      "type": "VEC3"
    },
    {
      "bufferView": 1,
      "byteOffset": 4718304,
      "componentType": 5126,
      "count": 65532,
      "max": [
        0.9999560117721558,
        0.9999750256538391
      ],
      "min": [
        0.0010730000212788582,
        0.0015019774436950684
      ],
      "type": "VEC2"
    },
    {
      "bufferView": 0,
      "byteOffset": 11266476,
      "componentType": 5125,
      "count": 281619,
      "type": "SCALAR"
    },
    {
      "bufferView": 2,
      "byteOffset": 15727680,
      "componentType": 5126,
      "count": 65532,
      "max": [
        0.6093337535858154,
        0.7846912741661072,
        0.6436790227890015
      ],
      "min": [
        -0.12161442637443542,
        0.09207725524902344,
        -0.2793385088443756
      ],
      "type": "VEC3"
    },
    {
      "bufferView": 2,
      "byteOffset": 16514064,
      "componentType": 5126,
      "count": 65532,
      "max": [
        0.9999707937240601,
        0.9999999403953552,
        0.999960720539093
      ],
      "min": [
        -0.9998717904090881,
        -0.9999873638153076,
        -0.9999778270721436
      ],
      "type": "VEC3"
    },
    {
      "bufferView": 1,
      "byteOffset": 5242560,
      "componentType": 5126,
      "count": 65532,
      "max": [
        0.9999899864196777,
        0.9999300241470337
      ],
      "min": [
        0.0015810000477358699,
        0.0015339851379394531
      ],
      "type": "VEC2"
    },
    {
      "bufferView": 0,
      "byteOffset": 12392952,
      "componentType": 5125,
      "count": 271401,
      "type": "SCALAR"
    },
    {
      "bufferView": 2,
      "byteOffset": 17300448,
      "componentType": 5126,
      "count": 65534,
      "max": [
        0.8427417278289795,
        0.7736653089523315,
        0.9116243124008179
      ],
      "min": [
        -0.06985744833946228,
        -0.002721726894378662,
        -0.3600302040576935
      ],
      "type": "VEC3"
    },
    {
      "bufferView": 2,
      "byteOffset": 18086856,
      "componentType": 5126,
      "count": 65534,
      "max": [
        0.9998425245285034,
        0.999988853931427,
        0.9999871253967285
      ],
      "min": [
        -0.9998689889907837,
        -0.9999557733535767,
        -0.9999240040779114
      ],
      "type": "VEC3"
    },
    {
      "bufferView": 1,
      "byteOffset": 5766816,
      "componentType": 5126,
      "count": 65534,
      "max": [
        0.9999539852142334,
        0.9999849796295166
      ],
      "min": [
        0.0014959999825805426,
        0.0015010237693786621
      ],
      "type": "VEC2"
    },
    {
      "bufferView": 0,
      "byteOffset": 13478556,
      "componentType": 5125,
      "count": 266703,
      "type": "SCALAR"
    },
    {
      "bufferView": 2,
      "byteOffset": 18873264,
      "componentType": 5126,
      "count": 6433,
      "max": [
        0.8653526306152344,
        0.7379522323608398,
        0.9226752519607544
      ],
      "min": [
        -0.050991326570510864,
        0.014458268880844116,
        -0.33922630548477173
      ],
      "type": "VEC3"
    },
    {
      "bufferView": 2,
      "byteOffset": 18950460,
      "componentType": 5126,
      "count": 6433,
      "max": [
        0.9998920559883118,
        0.9993521571159363,
        0.9994330406188965
      ],
      "min": [
        -0.9997500777244568,
        -0.999380350112915,
        -0.9993921518325806
      ],
      "type": "VEC3"
    },
    {
      "bufferView": 1,
      "byteOffset": 6291088,
      "componentType": 5126,
      "count": 6433,
      "max": [
        0.999343991279602,
        0.9998670220375061
      ],
      "min": [
        0.0015750000020489097,
        0.0020080208778381348
      ],
      "type": "VEC2"
    },
    {
      "bufferView": 0,
      "byteOffset": 14545368,
      "componentType": 5125,
      "count": 19881,
      "type": "SCALAR"
    }
  ],
  "asset": {
    "extras": {
      "author": "Brian Trepanier (https://sketchfab.com/CMBC)",
      "license": "CC-BY-4.0 (http://creativecommons.org/licenses/by/4.0/)",
      "source": "https://sketchfab.com/3d-models/common-housefly-insect-6a2cb80a87d64d23b52f23670f150a28",
      "title": "Common Housefly - insect"
    },
    "generator": "Sketchfab-16.74.0",
    "version": "2.0"
  },
  "bufferViews": [
    {
      "buffer": 0,
      "byteLength": 14624892,
      "name": "floatBufferViews",
      "target": 34963
    },
    {
      "buffer": 0,
      "byteLength": 6342552,
      "byteOffset": 14624892,
      "byteStride": 8,
      "name": "floatBufferViews",
      "target": 34962
    },
    {
      "buffer": 0,
      "byteLength": 19027656,
      "byteOffset": 20967444,
      "byteStride": 12,
      "name": "floatBufferViews",
      "target": 34962
    }
  ],
  "buffers": [
    {
      "byteLength": 39995100,
      "uri": "scene.bin"
    }
  ],
  "extensionsUsed": [
    "KHR_materials_specular"
  ],
  "images": [
    {
      "uri": "textures/Material_0_baseColor.jpeg"
    }
  ],
  "materials": [
    {
      "doubleSided": true,
      "extensions": {
        "KHR_materials_specular": {
          "specularColorFactor": [
            1.0,
            1.0,
            1.0
          ],
          "specularFactor": 0.0
        }
      },
      "name": "Material_0",
      "pbrMetallicRoughness": {
        "baseColorTexture": {
          "index": 0
        },
        "metallicFactor": 0.0,
        "roughnessFactor": 0.5
      }
    }
  ],
  "meshes": [
    {
      "name": "Object_0",
      "primitives": [
        {
          "attributes": {
            "NORMAL": 1,
            "POSITION": 0,
            "TEXCOORD_0": 2
          },
          "indices": 3,
          "material": 0,
          "mode": 4
        }
      ]
    },
    {
      "name": "Object_1",
      "primitives": [
        {
          "attributes": {
            "NORMAL": 5,
            "POSITION": 4,
            "TEXCOORD_0": 6
          },
          "indices": 7,
          "material": 0,
          "mode": 4
        }
      ]
    },
    {
      "name": "Object_2",
      "primitives": [
        {
          "attributes": {
            "NORMAL": 9,
            "POSITION": 8,
            "TEXCOORD_0": 10
          },
          "indices": 11,
          "material": 0,
          "mode": 4
        }
      ]
    },
    {
      "name": "Object_3",
      "primitives": [
        {
          "attributes": {
            "NORMAL": 13,
            "POSITION": 12,
            "TEXCOORD_0": 14
          },
          "indices": 15,
          "material": 0,
          "mode": 4
        }
      ]
    },
    {
      "name": "Object_4",
      "primitives": [
        {
          "attributes": {
            "NORMAL": 17,
            "POSITION": 16,
            "TEXCOORD_0": 18
          },
          "indices": 19,
          "material": 0,
          "mode": 4
        }
      ]
    },
    {
      "name": "Object_5",
      "primitives": [
        {
          "attributes": {
            "NORMAL": 21,
            "POSITION": 20,
            "TEXCOORD_0": 22
          },
          "indices": 23,
          "material": 0,
          "mode": 4
        }
      ]
    },
    {
      "name": "Object_6",
      "primitives": [
        {
          "attributes": {
            "NORMAL": 25,
            "POSITION": 24,
            "TEXCOORD_0": 26
          },
          "indices": 27,
          "material": 0,
          "mode": 4
        }
      ]
    },
    {
      "name": "Object_7",
      "primitives": [
        {
          "attributes": {
            "NORMAL": 29,
            "POSITION": 28,
            "TEXCOORD_0": 30
          },
          "indices": 31,
          "material": 0,
          "mode": 4
        }
      ]
    },
    {
      "name": "Object_8",
      "primitives": [
        {
          "attributes": {
            "NORMAL": 33,
            "POSITION": 32,
            "TEXCOORD_0": 34
          },
          "indices": 35,
          "material": 0,
          "mode": 4
        }
      ]
    },
    {
      "name": "Object_9",
      "primitives": [
        {
          "attributes": {
            "NORMAL": 37,
            "POSITION": 36,
            "TEXCOORD_0": 38
          },
          "indices": 39,
          "material": 0,
          "mode": 4
        }
      ]
    },
    {
      "name": "Object_10",
      "primitives": [
        {
          "attributes": {
            "NORMAL": 41,
            "POSITION": 40,
            "TEXCOORD_0": 42
          },
          "indices": 43,
          "material": 0,
          "mode": 4
        }
      ]
    },
    {
      "name": "Object_11",
      "primitives": [
        {
          "attributes": {
            "NORMAL": 45,
            "POSITION": 44,
            "TEXCOORD_0": 46
          },
          "indices": 47,
          "material": 0,
          "mode": 4
        }
      ]
    },
    {
      "name": "Object_12",
      "primitives": [
        {
          "attributes": {
            "NORMAL": 49,
            "POSITION": 48,
            "TEXCOORD_0": 50
          },
          "indices": 51,
          "material": 0,
          "mode": 4
        }
      ]
    }
  ],
  "nodes": [
    {
      "children": [
        1
      ],
      "matrix": [
        1.0,
        0.0,
        0.0,
        0.0,
        0.0,
        2.220446049250313e-16,
        -1.0,
        0.0,
        0.0,
        1.0,
        2.220446049250313e-16,
        0.0,
        0.0,
        0.0,
        0.0,
        1.0
      ],
      "name": "Sketchfab_model"
    },
    {
      "children": [
        2
      ],
      "name": "root"
    },
    {
      "children": [
        3
      ],
      "matrix": [
        1.0,
        0.0,
        0.0,
        0.0,
        0.0,
        2.220446049250313e-16,
        1.0,
        0.0,
        0.0,
        -1.0,
        2.220446049250313e-16,
        0.0,
        0.0,
        0.0,
        0.0,
        1.0
      ],
      "name": "GLTF_SceneRootNode"
    },
    {
      "children": [
        4,
        5,
        6,
        7,
        8,
        9,
        10,
        11,
        12,
        13,
        14,
        15,
        16
      ],
      "name": "Mesh_0_0"
    },
    {
      "mesh": 0,
      "name": "Object_4"
    },
    {
      "mesh": 1,
      "name": "Object_5"
    },
    {
      "mesh": 2,
      "name": "Object_6"
    },
    {
      "mesh": 3,
      "name": "Object_7"
    },
    {
      "mesh": 4,
      "name": "Object_8"
    },
    {
      "mesh": 5,
      "name": "Object_9"
    },
    {
      "mesh": 6,
      "name": "Object_10"
    },
    {
      "mesh": 7,
      "name": "Object_11"
    },
    {
      "mesh": 8,
      "name": "Object_12"
    },
    {
      "mesh": 9,
      "name": "Object_13"
    },
    {
      "mesh": 10,
      "name": "Object_14"
    },
    {
      "mesh": 11,
      "name": "Object_15"
    },
    {
      "mesh": 12,
      "name": "Object_16"
    }
  ],
  "samplers": [
    {
      "magFilter": 9729,
      "minFilter": 9987,
      "wrapS": 10497,
      "wrapT": 10497
    }
  ],
  "scene": 0,
  "scenes": [
    {
      "name": "Sketchfab_Scene",
      "nodes": [
        0
      ]
    }
  ],
  "textures": [
    {
      "sampler": 0,
      "source": 0
    }
  ]
}
